<svg width="130" height="32" viewBox="0 0 130 32" fill="none" xmlns="http://www.w3.org/2000/svg"><path d="M21.7159 17.0176C21.7316 15.791 22.057 14.5884 22.6617 13.5216C23.2663 12.4548 24.1307 11.5585 25.1742 10.9161C24.5113 9.96801 23.6367 9.18779 22.6199 8.63738C21.6032 8.08697 20.4723 7.78154 19.317 7.74535C16.8526 7.48633 14.4635 9.22196 13.2077 9.22196C11.9276 9.22196 9.99411 7.77106 7.91204 7.81396C6.56531 7.85753 5.25281 8.24967 4.10242 8.95218C2.95204 9.65469 2.00301 10.6436 1.34779 11.8226C-1.49046 16.7431 0.626619 23.9747 3.34542 27.952C4.7057 29.8997 6.29547 32.0752 8.37566 31.9981C10.4112 31.9135 11.1715 30.6983 13.6286 30.6983C16.0629 30.6983 16.7762 31.998 18.8986 31.949C21.0829 31.9135 22.4591 29.9927 23.7716 28.0267C24.749 26.6389 25.5011 25.1052 26 23.4822C24.731 22.9448 23.6481 22.0452 22.8862 20.8956C22.1244 19.746 21.7173 18.3973 21.7159 17.0176Z" fill="white"/><path d="M17.702 5.1295C18.893 3.69789 19.4797 1.8578 19.3376 0C17.5181 0.19136 15.8374 1.06213 14.6303 2.43881C14.0402 3.11136 13.5882 3.89378 13.3002 4.74135C13.0122 5.58891 12.8938 6.48501 12.9519 7.37841C13.862 7.38779 14.7623 7.19027 15.5851 6.80072C16.4079 6.41117 17.1317 5.83975 17.702 5.1295Z" fill="white"/><path d="M44.0718 23.8675H38.018L36.5642 28.1651H34L39.7341 12.2651H42.3982L48.1323 28.1651H45.5244L44.0718 23.8675ZM38.645 21.8844H43.4436L41.0781 14.9097H41.0119L38.645 21.8844Z" fill="white"/><path d="M60.5168 22.3695C60.5168 25.9718 58.5909 28.2863 55.6845 28.2863C54.9482 28.3248 54.216 28.1551 53.5717 27.7964C52.9274 27.4377 52.397 26.9046 52.0412 26.2581H51.9862V31.9999H49.6094V16.5726H51.91V18.5007H51.9538C52.3259 17.8574 52.8653 17.3271 53.5145 16.9662C54.1637 16.6053 54.8986 16.4274 55.6408 16.4514C58.5796 16.4514 60.5168 18.7771 60.5168 22.3695ZM58.0738 22.3695C58.0738 20.0225 56.8623 18.4795 55.0138 18.4795C53.1977 18.4795 51.9762 20.055 51.9762 22.3695C51.9762 24.7052 53.1977 26.2694 55.0138 26.2694C56.8623 26.2694 58.0738 24.7377 58.0738 22.3695Z" fill="white"/><path d="M73.2629 22.3694C73.2629 25.9718 71.337 28.2863 68.4306 28.2863C67.6943 28.3248 66.9621 28.155 66.3178 27.7964C65.6735 27.4377 65.1431 26.9046 64.7873 26.2581H64.7323V31.9999H62.3555V16.5726H64.6561V18.5007H64.6998C65.0719 17.8574 65.6113 17.3271 66.2605 16.9662C66.9098 16.6053 67.6446 16.4274 68.3868 16.4514C71.3257 16.4514 73.2629 18.7771 73.2629 22.3694ZM70.8199 22.3694C70.8199 20.0225 69.6084 18.4795 67.7599 18.4795C65.9438 18.4795 64.7223 20.055 64.7223 22.3694C64.7223 24.7052 65.9438 26.2694 67.7599 26.2694C69.6084 26.2694 70.8199 24.7377 70.8199 22.3694H70.8199Z" fill="white"/><path d="M81.6831 23.735C81.8592 25.3117 83.3892 26.347 85.48 26.347C87.4834 26.347 88.9247 25.3117 88.9247 23.8899C88.9247 22.6558 88.0554 21.9169 85.9971 21.4104L83.9387 20.914C81.0224 20.2088 79.6684 18.8434 79.6684 16.6277C79.6684 13.8843 82.0565 12 85.4475 12C88.8035 12 91.1042 13.8843 91.1816 16.6277H88.7823C88.6386 15.0409 87.3285 14.0832 85.4138 14.0832C83.4991 14.0832 82.1889 15.0522 82.1889 16.4626C82.1889 17.5867 83.0257 18.2482 85.0728 18.7546L86.8226 19.1847C90.0812 19.9562 91.4351 21.2666 91.4351 23.5923C91.4351 26.567 89.0683 28.4301 85.3038 28.4301C81.7817 28.4301 79.4036 26.6107 79.25 23.7348L81.6831 23.735Z" fill="white"/><path d="M96.5639 13.8291V16.5725H98.7658V18.4568H96.5639V24.8475C96.5639 25.8403 97.0048 26.303 97.9727 26.303C98.2341 26.2984 98.4951 26.28 98.7546 26.2479V28.121C98.3194 28.2024 97.8771 28.2393 97.4344 28.231C95.0901 28.231 94.1758 27.3495 94.1758 25.1013V18.4568H92.4922V16.5725H94.1758V13.8291H96.5639Z" fill="white"/><path d="M100.043 22.3695C100.043 18.7221 102.189 16.4302 105.535 16.4302C108.892 16.4302 111.028 18.7221 111.028 22.3695C111.028 26.0269 108.903 28.3089 105.535 28.3089C102.167 28.3089 100.043 26.0269 100.043 22.3695ZM108.606 22.3695C108.606 19.8675 107.461 18.3908 105.535 18.3908C103.609 18.3908 102.465 19.8787 102.465 22.3695C102.465 24.8815 103.609 26.347 105.535 26.347C107.461 26.347 108.606 24.8815 108.606 22.3695H108.606Z" fill="white"/><path d="M112.988 16.573H115.255V18.5461H115.31C115.464 17.9299 115.824 17.3853 116.331 17.0039C116.839 16.6225 117.462 16.4275 118.095 16.4517C118.369 16.4508 118.642 16.4805 118.91 16.5405V18.7662C118.564 18.6604 118.203 18.6118 117.842 18.6224C117.497 18.6084 117.152 18.6693 116.833 18.8011C116.513 18.9328 116.226 19.1322 115.991 19.3856C115.755 19.639 115.578 19.9403 115.47 20.269C115.362 20.5976 115.326 20.9457 115.365 21.2895V28.1654H112.988L112.988 16.573Z" fill="white"/><path d="M129.867 24.7603C129.547 26.8647 127.5 28.3089 124.881 28.3089C121.512 28.3089 119.422 26.0494 119.422 22.4245C119.422 18.7884 121.524 16.4302 124.781 16.4302C127.985 16.4302 129.999 18.6334 129.999 22.1482V22.9635H121.821V23.1072C121.783 23.5339 121.837 23.9637 121.977 24.3681C122.118 24.7725 122.344 25.1422 122.638 25.4528C122.933 25.7633 123.29 26.0076 123.686 26.1693C124.082 26.331 124.508 26.4065 124.936 26.3908C125.498 26.4434 126.061 26.3132 126.543 26.0194C127.025 25.7257 127.399 25.284 127.61 24.7602L129.867 24.7603ZM121.832 21.3004H127.621C127.643 20.9168 127.584 20.533 127.451 20.1729C127.317 19.8128 127.11 19.4844 126.843 19.2081C126.577 18.9318 126.256 18.7137 125.901 18.5675C125.546 18.4213 125.165 18.35 124.781 18.3583C124.394 18.356 124.01 18.4304 123.652 18.5773C123.294 18.7242 122.968 18.9407 122.694 19.2142C122.42 19.4878 122.203 19.813 122.055 20.171C121.907 20.5291 121.831 20.913 121.832 21.3004V21.3004Z" fill="white"/><path d="M36.7117 0.370091C37.202 0.334913 37.6939 0.40897 38.152 0.58692C38.6101 0.76487 39.023 1.04228 39.361 1.39913C39.6989 1.75599 39.9534 2.18339 40.1062 2.65052C40.2589 3.11765 40.3061 3.61286 40.2443 4.10043C40.2443 6.49886 38.948 7.87753 36.7117 7.87753H34V0.370091H36.7117ZM35.166 6.81581H36.5815C36.9318 6.83675 37.2823 6.77932 37.6076 6.64769C37.9329 6.51607 38.2248 6.31356 38.4619 6.05492C38.6991 5.79628 38.8756 5.48801 38.9786 5.15256C39.0816 4.8171 39.1085 4.4629 39.0573 4.11573C39.1048 3.76994 39.0751 3.41793 38.9706 3.08493C38.866 2.75194 38.6891 2.44619 38.4524 2.18961C38.2158 1.93302 37.9254 1.73195 37.6019 1.6008C37.2785 1.46965 36.93 1.41167 36.5815 1.43101H35.166V6.81581Z" fill="white"/><path d="M41.5595 5.04215C41.5239 4.66983 41.5665 4.29418 41.6846 3.93928C41.8026 3.58438 41.9936 3.25808 42.2451 2.9813C42.4967 2.70452 42.8033 2.48337 43.1454 2.33204C43.4874 2.18071 43.8573 2.10254 44.2313 2.10254C44.6054 2.10254 44.9752 2.18071 45.3173 2.33204C45.6593 2.48337 45.966 2.70452 46.2175 2.9813C46.4691 3.25808 46.66 3.58438 46.7781 3.93928C46.8962 4.29418 46.9388 4.66983 46.9031 5.04215C46.9394 5.41486 46.8974 5.79104 46.7796 6.14651C46.6618 6.50198 46.471 6.82888 46.2194 7.1062C45.9678 7.38353 45.6609 7.60514 45.3185 7.75679C44.9761 7.90845 44.6058 7.98679 44.2313 7.98679C43.8569 7.98679 43.4865 7.90845 43.1442 7.75679C42.8018 7.60514 42.4949 7.38353 42.2433 7.1062C41.9916 6.82888 41.8008 6.50198 41.6831 6.14651C41.5653 5.79104 41.5232 5.41486 41.5595 5.04215ZM45.7531 5.04215C45.7531 3.81407 45.2014 3.09589 44.2332 3.09589C43.2613 3.09589 42.7145 3.81407 42.7145 5.04217C42.7145 6.28009 43.2613 6.99273 44.2332 6.99273C45.2014 6.99272 45.7531 6.27516 45.7531 5.04215H45.7531Z" fill="white"/><path d="M54.0068 7.87747H52.8469L51.676 3.70478H51.5875L50.4215 7.87747H49.2726L47.7109 2.21191H48.845L49.8599 6.53507H49.9435L51.1083 2.21191H52.181L53.3458 6.53507H53.4342L54.4442 2.21191H55.5624L54.0068 7.87747Z" fill="white"/><path d="M56.875 2.21162H57.9513V3.11164H58.0349C58.1766 2.78839 58.4157 2.51741 58.7188 2.33647C59.0218 2.15554 59.3738 2.07366 59.7256 2.10226C60.0013 2.08153 60.2781 2.1231 60.5355 2.22387C60.7929 2.32465 61.0244 2.48205 61.2127 2.68443C61.401 2.8868 61.5414 3.12895 61.6234 3.39295C61.7055 3.65694 61.7271 3.93601 61.6866 4.20948V7.87711H60.5685V4.49026C60.5685 3.57979 60.1729 3.12701 59.3459 3.12701C59.1588 3.11829 58.9719 3.15014 58.7982 3.22039C58.6245 3.29063 58.4681 3.39761 58.3396 3.53398C58.2111 3.67035 58.1136 3.83289 58.0538 4.01046C57.994 4.18802 57.9733 4.37643 57.9931 4.56274V7.87718H56.875L56.875 2.21162Z" fill="white"/><path d="M63.4727 0H64.5908V7.87722H63.4727V0Z" fill="white"/><path d="M66.1454 5.04226C66.1098 4.66991 66.1524 4.29424 66.2705 3.93932C66.3886 3.58441 66.5796 3.2581 66.8312 2.98131C67.0828 2.70453 67.3895 2.48338 67.7315 2.33204C68.0736 2.18071 68.4435 2.10254 68.8175 2.10254C69.1916 2.10254 69.5615 2.18071 69.9036 2.33204C70.2456 2.48338 70.5523 2.70453 70.8039 2.98131C71.0555 3.2581 71.2464 3.58441 71.3645 3.93932C71.4826 4.29424 71.5253 4.66991 71.4897 5.04226C71.5259 5.41498 71.4838 5.79116 71.366 6.14663C71.2482 6.5021 71.0573 6.82899 70.8057 7.10631C70.554 7.38363 70.2472 7.60523 69.9048 7.75688C69.5624 7.90852 69.192 7.98687 68.8175 7.98687C68.4431 7.98687 68.0727 7.90852 67.7303 7.75688C67.3879 7.60523 67.081 7.38363 66.8294 7.10631C66.5777 6.82899 66.3869 6.5021 66.2691 6.14663C66.1513 5.79116 66.1092 5.41498 66.1454 5.04226ZM70.339 5.04226C70.339 3.81418 69.7873 3.096 68.8191 3.096C67.8472 3.096 67.3004 3.81418 67.3004 5.04227C67.3004 6.2802 67.8472 6.99284 68.8191 6.99284C69.7873 6.99283 70.339 6.27526 70.339 5.04226H70.339Z" fill="white"/><path d="M72.6641 6.27497C72.6641 5.25514 73.4234 4.66721 74.7713 4.58365L76.3059 4.49519V4.00617C76.3059 3.40778 75.9103 3.0699 75.146 3.0699C74.5219 3.0699 74.0894 3.29905 73.9653 3.69961H72.8828C72.997 2.72647 73.9124 2.10229 75.1977 2.10229C76.618 2.10229 77.4191 2.8094 77.4191 4.00617V7.8772H76.3428V7.081H76.2543C76.0748 7.3666 75.8226 7.59943 75.5237 7.75571C75.2247 7.91199 74.8896 7.98613 74.5526 7.97055C74.3147 7.99529 74.0744 7.96991 73.8469 7.89606C73.6195 7.8222 73.4101 7.70151 73.2321 7.54176C73.0542 7.38201 72.9117 7.18674 72.8139 6.96855C72.716 6.75036 72.665 6.51409 72.6641 6.27497ZM76.3059 5.79085V5.31719L74.9224 5.40566C74.1422 5.45787 73.7883 5.72327 73.7883 6.22274C73.7883 6.73265 74.2306 7.02938 74.8389 7.02938C75.0171 7.04742 75.1971 7.02943 75.3683 6.97647C75.5394 6.92351 75.6981 6.83667 75.835 6.72112C75.9719 6.60556 76.0841 6.46366 76.165 6.30384C76.2459 6.14403 76.2938 5.96957 76.3059 5.79085Z" fill="white"/><path d="M78.8906 5.04201C78.8906 3.25179 79.8109 2.11769 81.2424 2.11769C81.5964 2.10138 81.9478 2.18618 82.2555 2.3622C82.5632 2.53821 82.8144 2.79816 82.9798 3.11166H83.0633V0H84.1814V7.87722H83.11V6.9821H83.0215C82.8434 7.2935 82.5834 7.55021 82.2698 7.72445C81.9562 7.89869 81.6009 7.98381 81.2424 7.97059C79.8011 7.97065 78.8906 6.83653 78.8906 5.04201ZM80.0456 5.04201C80.0456 6.24368 80.6121 6.96678 81.5594 6.96678C82.5018 6.96678 83.0842 6.23325 83.0842 5.04693C83.0842 3.86614 82.4957 3.12216 81.5594 3.12216C80.6182 3.12216 80.0456 3.85016 80.0456 5.04201H80.0456Z" fill="white"/><path d="M88.8095 5.04215C88.7739 4.66983 88.8165 4.29418 88.9346 3.93928C89.0526 3.58438 89.2436 3.25808 89.4951 2.9813C89.7467 2.70452 90.0533 2.48337 90.3954 2.33204C90.7374 2.18071 91.1073 2.10254 91.4813 2.10254C91.8554 2.10254 92.2252 2.18071 92.5673 2.33204C92.9093 2.48337 93.216 2.70452 93.4675 2.9813C93.7191 3.25808 93.91 3.58438 94.0281 3.93928C94.1462 4.29418 94.1888 4.66983 94.1531 5.04215C94.1894 5.41486 94.1474 5.79104 94.0296 6.14651C93.9118 6.50198 93.721 6.82888 93.4694 7.1062C93.2178 7.38353 92.9109 7.60514 92.5685 7.75679C92.2261 7.90845 91.8558 7.98679 91.4813 7.98679C91.1069 7.98679 90.7365 7.90845 90.3941 7.75679C90.0518 7.60514 89.7449 7.38353 89.4933 7.1062C89.2416 6.82888 89.0508 6.50198 88.9331 6.14651C88.8153 5.79104 88.7732 5.41486 88.8095 5.04215ZM93.0031 5.04215C93.0031 3.81407 92.4514 3.09589 91.4832 3.09589C90.5113 3.09589 89.9645 3.81407 89.9645 5.04217C89.9645 6.28009 90.5113 6.99273 91.4832 6.99273C92.4514 6.99272 93.0031 6.27516 93.0031 5.04215Z" fill="white"/><path d="M95.6484 2.21162H96.7248V3.11164H96.8083C96.9501 2.78839 97.1891 2.51741 97.4922 2.33647C97.7953 2.15554 98.1472 2.07366 98.499 2.10226C98.7747 2.08153 99.0515 2.1231 99.3089 2.22387C99.5664 2.32465 99.7978 2.48205 99.9861 2.68443C100.174 2.8868 100.315 3.12895 100.397 3.39295C100.479 3.65694 100.501 3.93601 100.46 4.20948V7.87711H99.3419V4.49026C99.3419 3.57979 98.9463 3.12701 98.1194 3.12701C97.9322 3.11829 97.7454 3.15014 97.5717 3.22039C97.398 3.29063 97.2415 3.39761 97.113 3.53398C96.9845 3.67035 96.887 3.83289 96.8272 4.01046C96.7674 4.18802 96.7467 4.37643 96.7666 4.56274V7.87718H95.6484V2.21162Z" fill="white"/><path d="M106.781 0.801025V2.23738H108.008V3.17919H106.781V6.09244C106.781 6.68591 107.025 6.94578 107.582 6.94578C107.724 6.94532 107.867 6.9367 108.008 6.91997V7.85132C107.807 7.88725 107.604 7.90636 107.4 7.90846C106.157 7.90846 105.661 7.47104 105.661 6.37872V3.17914H104.762V2.23733H105.661V0.801025H106.781Z" fill="white"/><path d="M109.535 0H110.643V3.12214H110.732C110.881 2.79587 111.126 2.52335 111.435 2.34174C111.744 2.16012 112.102 2.07823 112.459 2.10723C112.734 2.09231 113.008 2.1381 113.262 2.24132C113.517 2.34455 113.745 2.50267 113.932 2.7044C114.118 2.90614 114.258 3.14652 114.34 3.40839C114.423 3.67027 114.447 3.94718 114.411 4.21938V7.87723H113.291V4.49521C113.291 3.59027 112.87 3.13196 112.08 3.13196C111.888 3.1162 111.694 3.14262 111.513 3.20937C111.333 3.27612 111.168 3.38159 111.033 3.5184C110.897 3.65522 110.792 3.82007 110.727 4.00142C110.661 4.18277 110.636 4.37625 110.653 4.56831V7.87721H109.535L109.535 0Z" fill="white"/><path d="M120.928 6.34756C120.776 6.86536 120.447 7.31325 119.998 7.61289C119.55 7.91253 119.01 8.04483 118.473 7.98665C118.1 7.9965 117.729 7.92501 117.386 7.77713C117.043 7.62926 116.737 7.40855 116.488 7.13031C116.239 6.85208 116.053 6.52299 115.944 6.16589C115.835 5.80878 115.805 5.43222 115.856 5.06234C115.806 4.69132 115.837 4.31394 115.946 3.95577C116.055 3.5976 116.239 3.26699 116.487 2.98632C116.735 2.70565 117.04 2.48147 117.382 2.32897C117.723 2.17647 118.094 2.0992 118.468 2.10239C120.045 2.10239 120.996 3.1794 120.996 4.95849V5.34864H116.995V5.4113C116.978 5.61921 117.004 5.82849 117.072 6.02571C117.14 6.22293 117.249 6.40374 117.391 6.55656C117.533 6.70937 117.705 6.83082 117.897 6.9131C118.089 6.99538 118.295 7.03669 118.504 7.03437C118.772 7.06648 119.042 7.01832 119.282 6.89601C119.522 6.77371 119.721 6.58278 119.852 6.34752L120.928 6.34756ZM116.995 4.52171H119.857C119.871 4.33156 119.845 4.14057 119.781 3.961C119.717 3.78143 119.616 3.61726 119.485 3.47904C119.353 3.34082 119.194 3.2316 119.018 3.1584C118.842 3.08521 118.653 3.04965 118.462 3.05402C118.269 3.05159 118.077 3.0879 117.898 3.16081C117.719 3.23371 117.556 3.34174 117.419 3.47852C117.283 3.61531 117.175 3.77808 117.102 3.95724C117.029 4.1364 116.993 4.32833 116.995 4.52171H116.995Z" fill="white"/></svg>