<svg width="16" height="16" viewBox="0 0 16 16" fill="none" xmlns="http://www.w3.org/2000/svg"><path d="M14.6667 4.57325V11.4266C14.6667 13.2133 13.2134 14.6666 11.4267 14.6666H10.5267V10.2733C10.5267 10.0866 10.68 9.93992 10.86 9.93992H11.84C12.0067 9.93992 12.1467 9.81325 12.1667 9.64659L12.32 8.49992C12.3467 8.29992 12.1934 8.11992 11.9934 8.11992H10.86C10.68 8.11992 10.5267 7.97325 10.5267 7.78659V6.97325C10.5267 6.70659 10.58 6.49325 10.6867 6.33325C10.82 6.17325 11.06 6.09325 11.4067 6.09325H12.04C12.22 6.09325 12.3734 5.93992 12.3734 5.75992V4.78659C12.3734 4.61325 12.2467 4.46659 12.08 4.45325C11.76 4.41992 11.3867 4.40659 10.98 4.40659C10.26 4.40659 9.70004 4.61992 9.27337 5.04659C8.84671 5.47325 8.66004 6.03992 8.66004 6.78659V7.78659C8.66004 7.97325 8.50671 8.11992 8.32671 8.11992H7.36004C7.18004 8.11992 7.02671 8.27325 7.02671 8.45325V9.60659C7.02671 9.78659 7.18004 9.93992 7.36004 9.93992H8.32671C8.50671 9.93992 8.66004 10.0866 8.66004 10.2733V14.6666H4.57337C2.78671 14.6666 1.33337 13.2133 1.33337 11.4266V4.57325C1.33337 2.78659 2.78671 1.33325 4.57337 1.33325H11.4267C13.2134 1.33325 14.6667 2.78659 14.6667 4.57325Z" fill="#627384"/></svg>