<svg width="104" height="104" viewBox="0 0 104 104" fill="none" xmlns="http://www.w3.org/2000/svg">
<rect width="104" height="104" rx="20" fill="#EEE7FF"/>
<path d="M46.7483 52.5244V58.7661" stroke="#9766FF" stroke-width="3" stroke-linecap="round" stroke-linejoin="round"/>
<path d="M49.933 55.6438H43.5645" stroke="#9766FF" stroke-width="3" stroke-linecap="round" stroke-linejoin="round"/>
<path d="M57.6109 52.7141H57.4325" stroke="#9766FF" stroke-width="3" stroke-linecap="round" stroke-linejoin="round"/>
<path d="M60.6324 58.6711H60.454" stroke="#9766FF" stroke-width="3" stroke-linecap="round" stroke-linejoin="round"/>
<path d="M45.4551 35.3335V35.3335C45.4551 36.5676 46.4759 37.5681 47.7351 37.5681H49.4959C51.4386 37.575 53.0122 39.1173 53.021 41.0213V42.1464" stroke="#9766FF" stroke-width="3" stroke-linecap="round" stroke-linejoin="round"/>
<path fill-rule="evenodd" clip-rule="evenodd" d="M59.3812 68.6041C54.3725 68.6889 49.4557 68.6854 44.6219 68.6041C39.2565 68.6041 35.334 64.7771 35.334 59.5186V51.7693C35.334 46.5108 39.2565 42.6837 44.6219 42.6837C49.4822 42.6007 54.4025 42.6024 59.3812 42.6837C64.7466 42.6837 68.6673 46.5125 68.6673 51.7693V59.5186C68.6673 64.7771 64.7466 68.6041 59.3812 68.6041Z" stroke="#9766FF" stroke-width="3" stroke-linecap="round" stroke-linejoin="round"/>
</svg>
