<svg width="40" height="40" viewBox="0 0 40 40" fill="none" xmlns="http://www.w3.org/2000/svg"><path d="M14.7483 20.5244V26.7661" stroke="#9766FF" stroke-width="3" stroke-linecap="round" stroke-linejoin="round"/><path d="M17.933 23.6438H11.5645" stroke="#9766FF" stroke-width="3" stroke-linecap="round" stroke-linejoin="round"/><path d="M25.6109 20.7141H25.4325" stroke="#9766FF" stroke-width="3" stroke-linecap="round" stroke-linejoin="round"/><path d="M28.6324 26.6711H28.454" stroke="#9766FF" stroke-width="3" stroke-linecap="round" stroke-linejoin="round"/><path d="M13.4551 3.3335V3.3335C13.4551 4.56763 14.4759 5.5681 15.7351 5.5681H17.4959C19.4386 5.57502 21.0122 7.11726 21.021 9.02126V10.1464" stroke="#9766FF" stroke-width="3" stroke-linecap="round" stroke-linejoin="round"/><path fill-rule="evenodd" clip-rule="evenodd" d="M27.3812 36.6041C22.3725 36.6889 17.4557 36.6854 12.6219 36.6041C7.25649 36.6041 3.33398 32.7771 3.33398 27.5186V19.7693C3.33398 14.5108 7.25649 10.6837 12.6219 10.6837C17.4822 10.6007 22.4025 10.6024 27.3812 10.6837C32.7466 10.6837 36.6673 14.5125 36.6673 19.7693V27.5186C36.6673 32.7771 32.7466 36.6041 27.3812 36.6041Z" stroke="#9766FF" stroke-width="3" stroke-linecap="round" stroke-linejoin="round"/></svg>