<svg width="137" height="33" viewBox="0 0 137 33" fill="none" xmlns="http://www.w3.org/2000/svg"><path d="M13.54 16.2824L0.125 30.341C0.125505 30.3439 0.126512 30.3463 0.126985 30.3493C0.538415 31.8759 1.95069 33 3.62677 33C4.29678 33 4.92583 32.8211 5.46531 32.5072L5.50815 32.4824L20.6093 23.8789L13.5407 16.2822" fill="#EB3131"/><path d="M27.1118 13.8887L27.0989 13.88L20.5793 10.1484L13.2341 16.6016L20.6048 23.8779L27.0901 20.1835C28.227 19.5774 28.9989 18.394 28.9989 17.0293C28.9989 15.6744 28.2374 14.4968 27.1117 13.8888" fill="#F6B60B"/><path d="M0.123035 3.65796C0.0423881 3.95158 0 4.25913 0 4.57851V29.4214C0 29.7401 0.0418879 30.0487 0.123546 30.3413L14.0017 16.642L0.123546 3.65831" fill="#5778C5"/><path d="M13.6403 17L20.5843 10.146L5.50021 1.51135C4.95193 1.18712 4.31201 1 3.62727 1C1.95119 1 0.53701 2.12611 0.125505 3.65449C0.125 3.65598 0.125 3.65701 0.125 3.65832L13.6402 17.0003" fill="#3BAD49"/><path d="M114.727 28.2131H116.928V13.5297H114.727V28.2131ZM134.552 18.8194L132.029 25.185H131.954L129.335 18.8194H126.964L130.892 27.7163L128.652 32.6656H130.948L137 18.8198L134.552 18.8194ZM122.069 26.5453C121.35 26.5453 120.343 26.186 120.343 25.2983C120.343 24.165 121.596 23.7306 122.677 23.7306C123.644 23.7306 124.1 23.938 124.688 24.2215C124.517 25.5818 123.341 26.5452 122.069 26.5452L122.069 26.5453ZM122.336 18.4982C120.742 18.4982 119.092 19.1974 118.409 20.7463L120.362 21.5584C120.78 20.7463 121.557 20.4821 122.373 20.4821C123.512 20.4821 124.669 21.1615 124.688 22.3709V22.5218C124.289 22.2951 123.435 21.9552 122.392 21.9552C120.286 21.9552 118.142 23.1072 118.142 25.2607C118.142 27.2252 119.869 28.491 121.804 28.491C123.283 28.491 124.1 27.8298 124.611 27.055H124.688V28.1891H126.813V22.5594C126.813 19.9526 124.858 18.4982 122.336 18.4982V18.4982ZM108.732 20.6068H105.602V15.574H108.732C110.378 15.574 111.312 16.9302 111.312 18.0904C111.312 19.2282 110.378 20.6068 108.732 20.6068ZM108.676 13.53H103.402V28.2135H105.602V22.6508H108.676C111.115 22.6508 113.513 20.8927 113.513 18.0909C113.513 15.2896 111.115 13.5306 108.676 13.5306L108.676 13.53ZM79.9168 26.5477C78.3962 26.5477 77.1236 25.2796 77.1236 23.5395C77.1236 21.7792 78.3962 20.4932 79.9168 20.4932C81.4181 20.4932 82.5962 21.7793 82.5962 23.5395C82.5962 25.2796 81.4181 26.5477 79.9168 26.5477ZM82.4441 19.6413H82.3681C81.8742 19.0549 80.9235 18.5251 79.727 18.5251C77.218 18.5251 74.9188 20.7203 74.9188 23.5395C74.9188 26.3395 77.218 28.5155 79.727 28.5155C80.9235 28.5155 81.8741 27.9855 82.3681 27.3804H82.4441V28.0989C82.4441 30.0107 81.4181 31.0319 79.7647 31.0319C78.416 31.0319 77.5798 30.067 77.2374 29.2535L75.3184 30.0482C75.869 31.3721 77.3319 33 79.7648 33C82.3498 33 84.5351 31.4859 84.5351 27.796V18.8277H82.4442L82.4441 19.6413ZM86.0557 28.2127H88.2591V13.5292H86.0557V28.2127ZM91.509 23.3689C91.4523 21.4388 93.011 20.4551 94.1317 20.4551C95.0062 20.4551 95.7466 20.8905 95.9946 21.5145L91.509 23.3689ZM98.35 21.7035C97.9321 20.5878 96.659 18.5251 94.0556 18.5251C91.4707 18.5251 89.3235 20.5496 89.3235 23.5203C89.3235 26.3207 91.4523 28.5156 94.3022 28.5156C96.6014 28.5156 97.9322 27.1158 98.4836 26.3019L96.7732 25.1664C96.2029 25.9991 95.4242 26.5478 94.3022 26.5478C93.1816 26.5478 92.3831 26.0368 91.8707 25.0339L98.5781 22.2716L98.35 21.7035ZM44.9061 20.0578V22.177H49.9988C49.8468 23.369 49.4477 24.2392 48.8395 24.8448C48.0982 25.5825 46.9389 26.3964 44.906 26.3964C41.7703 26.3964 39.3191 23.88 39.3191 20.758C39.3191 17.6359 41.7703 15.1191 44.906 15.1191C46.5973 15.1191 47.8323 15.7816 48.7445 16.633L50.2462 15.1379C48.9726 13.9271 47.2816 13 44.906 13C40.6106 13 37 16.4816 37 20.758C37 25.0339 40.6106 28.5156 44.906 28.5156C47.2241 28.5156 48.9727 27.7586 50.3407 26.3396C51.747 24.9393 52.1842 22.9716 52.1842 21.382C52.1842 20.8906 52.1459 20.4364 52.0699 20.0578H44.9061ZM57.9749 26.5477C56.4543 26.5477 55.1429 25.2989 55.1429 23.5203C55.1429 21.7228 56.4543 20.4932 57.9749 20.4932C59.4949 20.4932 60.8062 21.7228 60.8062 23.5203C60.8062 25.2989 59.4949 26.5477 57.9749 26.5477ZM57.9749 18.5251C55.1996 18.5251 52.9385 20.6253 52.9385 23.5203C52.9385 26.3964 55.1996 28.5156 57.9749 28.5156C60.7491 28.5156 63.0106 26.3964 63.0106 23.5203C63.0106 20.6253 60.7491 18.5251 57.9749 18.5251ZM68.9602 26.5477C67.4407 26.5477 66.1289 25.2989 66.1289 23.5203C66.1289 21.7228 67.4408 20.4932 68.9602 20.4932C70.4809 20.4932 71.7917 21.7228 71.7917 23.5203C71.7917 25.2989 70.4809 26.5477 68.9602 26.5477ZM68.9602 18.5251C66.186 18.5251 63.9249 20.6253 63.9249 23.5203C63.9249 26.3964 66.186 28.5156 68.9602 28.5156C71.7355 28.5156 73.9966 26.3964 73.9966 23.5203C73.9966 20.6253 71.7355 18.5251 68.9602 18.5251Z" fill="white"/><path d="M45.264 4.7334H41.5523V5.6519H44.3337C44.2581 6.40144 43.9599 6.9899 43.4569 7.41732C42.9539 7.84483 42.3118 8.05948 41.5523 8.05948C40.7193 8.05948 40.0136 7.76925 39.4352 7.19276C38.8685 6.6043 38.5803 5.87662 38.5803 4.99992C38.5803 4.12328 38.8685 3.39558 39.4352 2.80717C40.0136 2.23067 40.7193 1.94236 41.5523 1.94236C41.9798 1.94236 42.3874 2.01591 42.761 2.17698C43.1348 2.33793 43.435 2.56263 43.6696 2.85094L44.3754 2.14518C44.0553 1.78129 43.6498 1.50302 43.1466 1.30022C42.6437 1.0974 42.1189 1.00007 41.5522 1.00007C40.441 1.00007 39.4987 1.38571 38.7293 2.15513C37.9599 2.92643 37.5742 3.87675 37.5742 4.99994C37.5742 6.12313 37.9599 7.0755 38.7293 7.84494C39.4987 8.61419 40.441 9 41.5522 9C42.7192 9 43.6496 8.62619 44.3654 7.8667C44.9955 7.2346 45.3176 6.37973 45.3176 5.31017C45.3176 5.12924 45.2957 4.93636 45.2639 4.73355L45.264 4.7334ZM46.7019 1.17087V8.82889H51.1729V7.8885H47.686V5.45919H50.8311V4.54068H47.686V2.11327H51.1729V1.17085L46.7019 1.17087ZM57.4424 2.1133V1.17087H52.18V2.1133H54.3192V8.82887H55.3032V2.1133H57.4424ZM62.2066 1.17087H61.2225V8.82889H62.2066V1.17087ZM68.702 2.1133V1.17087H63.4397V2.1133H65.5787V8.82887H66.5628V2.1133H68.702ZM78.6323 2.16699C77.8728 1.38565 76.9424 1 75.8311 1C74.7178 1 73.7875 1.38564 73.028 2.15506C72.2685 2.91453 71.8949 3.86676 71.8949 4.99987C71.8949 6.13299 72.2685 7.08536 73.028 7.84487C73.7874 8.61413 74.7178 8.99993 75.8311 8.99993C76.9324 8.99993 77.8728 8.61415 78.6323 7.84487C79.3917 7.08541 79.7654 6.13308 79.7654 4.99987C79.7654 3.87668 79.3917 2.92631 78.6323 2.16699ZM73.7338 2.8071C74.3003 2.2306 74.9962 1.9423 75.8311 1.9423C76.6641 1.9423 77.3599 2.23061 77.9166 2.8071C78.4831 3.37368 78.7614 4.11313 78.7614 4.99985C78.7614 5.88858 78.4831 6.62604 77.9166 7.1927C77.3599 7.7692 76.6641 8.05941 75.8311 8.05941C74.9962 8.05941 74.3003 7.76919 73.7338 7.1927C73.179 6.61416 72.9007 5.88857 72.9007 4.99985C72.9007 4.11315 73.179 3.38559 73.7338 2.8071ZM82.1034 4.0596L82.0617 2.58237H82.1034L85.996 8.82881H87.0237V1.1708H86.0397V5.65182L86.0814 7.12904H86.0397L82.3181 1.1708H81.1193V8.82881H82.1034V4.0596Z" fill="white" stroke="white" stroke-width="0.26666" stroke-miterlimit="10"/></svg>