<svg width="16" height="16" viewBox="0 0 16 16" fill="none" xmlns="http://www.w3.org/2000/svg"><path d="M8 9.88012C9.03334 9.88012 9.88 9.03345 9.88 8.00012C9.88 6.96678 9.03334 6.12012 8 6.12012C6.96667 6.12012 6.12 6.96678 6.12 8.00012C6.12 9.03345 6.96667 9.88012 8 9.88012Z" fill="#627384"/><path d="M11.4267 1.33325H4.57337C2.7867 1.33325 1.33337 2.78659 1.33337 4.57325V11.4266C1.33337 13.2133 2.7867 14.6666 4.57337 14.6666H11.4267C13.2134 14.6666 14.6667 13.2133 14.6667 11.4266V4.57325C14.6667 2.78659 13.2134 1.33325 11.4267 1.33325ZM11.4334 5.27325C11.0534 5.27325 10.7467 4.96659 10.7467 4.59325C10.7467 4.21325 11.0534 3.90659 11.4334 3.90659C11.8067 3.90659 12.1134 4.21325 12.1134 4.59325C12.1134 4.96659 11.8067 5.27325 11.4334 5.27325ZM8.00004 5.11992C9.58671 5.11992 10.88 6.41325 10.88 7.99992C10.88 9.58659 9.58671 10.8799 8.00004 10.8799C6.41337 10.8799 5.12003 9.58659 5.12003 7.99992C5.12003 6.41325 6.41337 5.11992 8.00004 5.11992Z" fill="#627384"/></svg>