<svg width="104" height="104" viewBox="0 0 104 104" fill="none" xmlns="http://www.w3.org/2000/svg">
<rect width="104" height="104" rx="20" fill="#FFF6D6"/>
<path fill-rule="evenodd" clip-rule="evenodd" d="M52.0007 37.8976C46.9645 37.8976 42.8225 41.9356 42.9281 46.8447C42.9568 48.1815 43.4595 49.7159 44.1116 51.1334C44.7538 52.5294 45.4893 53.7025 45.879 54.2886C46.1207 54.652 46.3326 55.0567 46.4832 55.5038L47.7507 59.2651H56.2507L57.5182 55.5038C57.6688 55.0567 57.8807 54.6521 58.1223 54.2886C58.512 53.7025 59.2475 52.5294 59.8897 51.1334C60.5418 49.7159 61.0445 48.1815 61.0732 46.8447C61.1788 41.9356 57.0368 37.8976 52.0007 37.8976ZM55.8888 61.8292H48.1126V62.2566C48.1126 64.3808 49.8533 66.1027 52.0007 66.1027C54.148 66.1027 55.8888 64.3806 55.8888 62.2564V61.8292ZM45.5205 60.7552L44.0241 56.3146C43.9558 56.1117 43.8524 55.9066 43.7134 55.6977C43.2818 55.0486 42.4696 53.7545 41.7523 52.1955C41.045 50.6579 40.3764 48.7493 40.3366 46.8992C40.1985 40.482 45.5842 35.3335 52.0007 35.3335C58.4171 35.3335 63.8027 40.482 63.6647 46.8992C63.6249 48.7493 62.9563 50.6579 62.249 52.1955C61.5317 53.7545 60.7195 55.0486 60.2879 55.6977C60.149 55.9066 60.0456 56.1117 59.9772 56.3146L58.4809 60.7552V62.2564C58.4809 65.7966 55.5797 68.6668 52.0007 68.6668C48.4218 68.6668 45.5205 65.7969 45.5205 62.2566V60.7552Z" fill="#FFC700"/>
</svg>
