<svg width="40" height="40" viewBox="0 0 40 40" fill="none" xmlns="http://www.w3.org/2000/svg"><path fill-rule="evenodd" clip-rule="evenodd" d="M19.9987 5.89736C14.9626 5.89736 10.8205 9.93533 10.9261 14.8444C10.9549 16.1813 11.4576 17.7157 12.1097 19.1331C12.7519 20.5291 13.4873 21.7022 13.8771 22.2884C14.1188 22.6518 14.3306 23.0565 14.4812 23.5035L15.7487 27.2649H24.2488L25.5162 23.5035C25.6669 23.0565 25.8787 22.6518 26.1204 22.2884C26.5101 21.7023 27.2455 20.5292 27.8878 19.1332C28.5399 17.7157 29.0425 16.1813 29.0713 14.8444C29.1769 9.93533 25.0348 5.89736 19.9987 5.89736ZM23.8869 29.829H16.1106V30.2563C16.1106 32.3805 17.8514 34.1025 19.9987 34.1025C22.146 34.1025 23.8869 32.3804 23.8869 30.2561V29.829ZM13.5185 28.755L12.0222 24.3144C11.9538 24.1115 11.8504 23.9064 11.7115 23.6974C11.2799 23.0483 10.4676 21.7543 9.75039 20.1952C9.04302 18.6576 8.37442 16.7491 8.33463 14.899C8.19659 8.48174 13.5823 3.33325 19.9987 3.33325C26.4151 3.33325 31.8008 8.48174 31.6628 14.899C31.623 16.7491 30.9544 18.6576 30.247 20.1952C29.5298 21.7543 28.7176 23.0483 28.286 23.6974C28.147 23.9064 28.0437 24.1115 27.9753 24.3144L26.4789 28.755V30.2561C26.4789 33.7963 23.5777 36.6666 19.9987 36.6666C16.4198 36.6666 13.5185 33.7966 13.5185 30.2563V28.755Z" fill="#FFC700"/></svg>