<svg width="43" height="26" viewBox="0 0 43 26" fill="none" xmlns="http://www.w3.org/2000/svg"><path d="M4.63295 21.7587C3.81717 21.0759 2.45659 21.2167 1.82051 20.516C1.74635 20.4351 1.6836 20.3453 1.62655 20.2465C1.43829 19.9141 1.38695 19.5158 1.43259 19.1355C1.46396 18.857 1.49249 18.6175 1.5096 18.4558C1.80339 15.9734 1.9945 14.0629 2.55357 10.239C2.60776 9.31074 3.07556 7.14575 2.61918 6.30431C2.59065 6.25041 2.44518 6.62471 2.39098 6.87625C1.43544 11.2062 0.522681 15.8147 0.206068 18.5726C0.0491872 19.6566 -0.147628 21.0729 0.168985 21.5041C1.40977 23.172 4.84403 21.9353 4.63295 21.7587Z" fill="#E01E1E"/><path d="M9.05871 22.3283H19.7783C19.8891 22.3283 19.9772 22.2288 19.963 22.1148C19.8428 21.1157 19.8185 16.4249 19.6565 14.2949C19.6126 13.7183 19.1638 13.6168 18.7736 14.0437C17.8509 15.0533 16.2465 16.7683 15.0804 17.9118C14.7121 18.2729 14.1306 18.2729 13.7623 17.9119C12.5953 16.7678 10.9909 15.054 10.0687 14.0445C9.67852 13.6175 9.22914 13.7183 9.1851 14.2951C9.02248 16.4251 8.99995 21.1157 8.87977 22.1148C8.85989 22.2288 8.94793 22.3283 9.05871 22.3283Z" fill="#E01E1E"/><path d="M24.0921 0.909376C24.2518 0.897398 4.8186 0.909376 4.8186 0.909376C4.8186 0.909376 4.80719 0.924354 4.80149 0.933337C4.75015 1.01119 4.81574 1.10701 4.82145 1.10701C5.13236 1.14294 5.89109 1.55618 6.87231 2.194C7.40855 2.54135 8.01325 2.95758 8.64648 3.42172C10.3328 4.64072 12.2307 6.16515 13.6615 7.52599C14.0727 7.9171 14.7267 7.9171 15.1379 7.52599C16.5687 6.16515 18.4666 4.64072 20.153 3.42172C20.7862 2.95758 21.3909 2.54135 21.9271 2.194C22.8249 1.61146 23.5336 1.21619 23.8867 1.1237C23.9794 1.09941 24.0908 1.00523 24.0921 0.909376Z" fill="#FFC700"/><path d="M31.1553 6.18818C31.084 7.12544 31.0355 8.0657 30.9756 9.00595C30.9414 9.8414 30.91 10.6739 30.8729 11.5093C30.833 12.4586 31.1496 12.8658 32.0367 12.9347C33.0607 13.0125 34.0876 13.0934 35.1144 13.1143C37.5846 13.1682 38.9594 12.0872 39.5356 9.6827C39.6725 7.30511 38.7626 5.98156 36.5663 5.4216C35.1886 5.07125 33.7653 5.16408 32.3619 5.04729C31.5632 4.98141 31.2181 5.31979 31.1553 6.18818Z" fill="#2496FF"/><path d="M42.7572 9.64744C42.7144 9.6145 42.5547 9.53964 42.5119 9.50371C42.5062 9.78518 42.4891 10.0756 42.4577 10.3691C42.2694 12.6449 41.2141 14.3338 39.3144 15.4267C37.7598 16.3221 36.0741 16.5197 34.337 16.376C33.4927 16.3071 32.6427 16.2592 31.8041 16.1394C31.342 16.0735 31.1309 16.2562 30.9541 16.6664C30.4406 17.8492 29.3254 21.3288 29.2626 21.4336C29.1628 21.6073 29.0772 21.8468 28.8462 21.8109C28.6151 21.775 28.578 21.5324 28.5495 21.3258C28.4041 20.2837 26.5158 5.09587 26.2705 3.1375C26.1878 2.46675 26.5899 1.98164 27.2232 1.88283C27.3401 1.86486 31.0596 1.82294 34.0518 2.34098L33.758 1.99662L26.5757 0.924609C25.8169 0.81082 25.1695 1.49056 25.275 2.28708L27.865 21.4246C27.9505 22.0564 28.4896 22.5086 29.0943 22.4547C29.0943 22.4547 29.4737 22.4218 30.1041 22.3229C35.1471 26.069 37.5288 25.006 37.1009 24.7994C34.4796 23.5237 34.0689 22.2241 33.8036 21.4486C37.6999 20.2059 42.6488 17.5079 42.9882 11.7735C43.0624 10.5548 42.7572 9.64744 42.7572 9.64744Z" fill="#2496FF"/></svg>