<svg width="48" height="48" viewBox="0 0 48 48" fill="none" xmlns="http://www.w3.org/2000/svg"><rect width="48" height="48" rx="10" fill="white"/><path d="M29.8334 33.9997H28.1667C27.9457 33.9997 27.7337 33.9119 27.5775 33.7556C27.4212 33.5993 27.3334 33.3874 27.3334 33.1663C27.3334 32.9453 27.4212 32.7334 27.5775 32.5771C27.7337 32.4208 27.9457 32.333 28.1667 32.333H29.8334C30.4964 32.333 31.1323 32.0696 31.6011 31.6008C32.07 31.1319 32.3334 30.496 32.3334 29.833V28.1663C32.3334 27.9453 32.4212 27.7334 32.5775 27.5771C32.7337 27.4208 32.9457 27.333 33.1667 27.333C33.3877 27.333 33.5997 27.4208 33.756 27.5771C33.9122 27.7334 34 27.9453 34 28.1663V29.833C33.9987 30.9377 33.5593 31.9967 32.7782 32.7778C31.9971 33.5589 30.938 33.9984 29.8334 33.9997Z" fill="#130F26"/><path d="M14.8333 20.6667C14.6123 20.6667 14.4004 20.5789 14.2441 20.4226C14.0878 20.2663 14 20.0543 14 19.8333V18.1667C14.0013 17.062 14.4407 16.003 15.2218 15.2218C16.003 14.4407 17.062 14.0013 18.1667 14H19.8333C20.0543 14 20.2663 14.0878 20.4226 14.2441C20.5789 14.4004 20.6667 14.6123 20.6667 14.8333C20.6667 15.0543 20.5789 15.2663 20.4226 15.4226C20.2663 15.5789 20.0543 15.6667 19.8333 15.6667H18.1667C17.5036 15.6667 16.8677 15.9301 16.3989 16.3989C15.9301 16.8677 15.6667 17.5036 15.6667 18.1667V19.8333C15.6667 20.0543 15.5789 20.2663 15.4226 20.4226C15.2663 20.5789 15.0543 20.6667 14.8333 20.6667Z" fill="#130F26"/><path d="M19.8333 33.9997H18.1667C17.062 33.9984 16.003 33.5589 15.2218 32.7778C14.4407 31.9967 14.0013 30.9377 14 29.833V28.1663C14 27.9453 14.0878 27.7334 14.2441 27.5771C14.4004 27.4208 14.6123 27.333 14.8333 27.333C15.0543 27.333 15.2663 27.4208 15.4226 27.5771C15.5789 27.7334 15.6667 27.9453 15.6667 28.1663V29.833C15.6667 30.496 15.9301 31.1319 16.3989 31.6008C16.8677 32.0696 17.5036 32.333 18.1667 32.333H19.8333C20.0543 32.333 20.2663 32.4208 20.4226 32.5771C20.5789 32.7334 20.6667 32.9453 20.6667 33.1663C20.6667 33.3874 20.5789 33.5993 20.4226 33.7556C20.2663 33.9119 20.0543 33.9997 19.8333 33.9997Z" fill="#130F26"/><path d="M33.1667 20.6667C32.9457 20.6667 32.7337 20.5789 32.5775 20.4226C32.4212 20.2663 32.3334 20.0543 32.3334 19.8333V18.1667C32.3334 17.5036 32.07 16.8677 31.6011 16.3989C31.1323 15.9301 30.4964 15.6667 29.8334 15.6667H28.1667C27.9457 15.6667 27.7337 15.5789 27.5775 15.4226C27.4212 15.2663 27.3334 15.0543 27.3334 14.8333C27.3334 14.6123 27.4212 14.4004 27.5775 14.2441C27.7337 14.0878 27.9457 14 28.1667 14H29.8334C30.938 14.0013 31.9971 14.4407 32.7782 15.2218C33.5593 16.003 33.9987 17.062 34 18.1667V19.8333C34 20.0543 33.9122 20.2663 33.756 20.4226C33.5997 20.5789 33.3877 20.6667 33.1667 20.6667Z" fill="#130F26"/></svg>