<svg width="16" height="16" viewBox="0 0 16 16" fill="none" xmlns="http://www.w3.org/2000/svg"><path d="M7.8733 15.1464L11.1493 6.4586H12.6335L16 15.1464H14.4253L13.6833 12.8658H10.2081L9.35747 15.1464H7.8733ZM10.6063 11.5989H13.1765L11.9095 8.08756H11.8733L10.6063 11.5989ZM2.17195 12.9744L1.17647 11.979L4.86878 8.28666C4.41026 7.75574 4.00302 7.2218 3.64706 6.68485C3.2911 6.14789 2.98039 5.58982 2.71493 5.01064H4.28959C4.49472 5.40883 4.72097 5.7859 4.96833 6.14186C5.21569 6.49782 5.49623 6.86283 5.80995 7.23688C6.35294 6.66976 6.80543 6.08153 7.16742 5.47218C7.52941 4.86283 7.8371 4.22633 8.0905 3.56268H0V2.11471H5.06787V0.666748H6.51584V2.11471H11.5837V3.56268H9.53846C9.273 4.39525 8.92006 5.21275 8.47964 6.01516C8.03922 6.81758 7.49925 7.58077 6.85973 8.30476L8.63348 10.0966L8.0905 11.5627L5.79186 9.35453L2.17195 12.9744Z" fill="#627384"/></svg>