<svg width="16" height="16" viewBox="0 0 16 16" fill="none" xmlns="http://www.w3.org/2000/svg"><path d="M8.00004 1.33325C4.32004 1.33325 1.33337 4.31992 1.33337 7.99992C1.33337 11.6799 4.32004 14.6666 8.00004 14.6666C11.68 14.6666 14.6667 11.6799 14.6667 7.99992C14.6667 4.31992 11.68 1.33325 8.00004 1.33325ZM11.02 5.68659L10.0267 10.4666C9.95337 10.8133 9.75337 10.8866 9.45337 10.7399C8.98671 10.4199 8.51337 10.1066 8.04004 9.79325C7.92671 9.71325 7.76671 9.71992 7.65337 9.80659L6.99337 10.3133C6.80671 9.81325 6.61337 9.31325 6.42004 8.81992C6.38671 8.72659 6.32004 8.65325 6.22671 8.61992C5.86671 8.49325 5.0467 8.19992 4.58004 7.99992C4.50004 7.96659 4.36004 7.89992 4.34671 7.79992C4.34004 7.69992 4.44004 7.58659 4.65337 7.50659L10.6 5.21992C10.8734 5.11992 11.12 5.29325 11.02 5.68659Z" fill="#627384"/></svg>