<svg width="16" height="16" viewBox="0 0 16 16" fill="none" xmlns="http://www.w3.org/2000/svg"><path d="M6.38669 8.49325C6.00036 8.49325 5.6227 8.60779 5.30148 8.82245C4.98025 9.03705 4.72989 9.34212 4.58204 9.69905C4.43421 10.056 4.39552 10.4488 4.47089 10.8277C4.54626 11.2066 4.7323 11.5547 5.00548 11.8278C5.27865 12.101 5.62671 12.287 6.00561 12.3624C6.38453 12.4378 6.77728 12.3991 7.13422 12.2513C7.49115 12.1034 7.79622 11.8531 8.01082 11.5318C8.22548 11.2106 8.34002 10.8329 8.34002 10.4466V1.33325H10.6667V1.38659C10.6439 1.56809 10.6439 1.75175 10.6667 1.93325C10.7506 2.35613 10.9198 2.75747 11.1639 3.11279C11.408 3.46811 11.722 3.76996 12.0867 3.99992C12.5946 4.34261 13.1941 4.52386 13.8067 4.51992V6.78659C12.6801 6.79725 11.5797 6.4468 10.6667 5.78659V10.4533C10.6627 11.2877 10.4122 12.1023 9.94668 12.7948C9.48115 13.4873 8.82135 14.0267 8.05022 14.3455C7.27902 14.6641 6.43086 14.7478 5.61229 14.5859C4.79371 14.4241 4.04122 14.0239 3.44936 13.4358C2.85749 12.8476 2.45264 12.0976 2.28568 11.2801C2.11872 10.4625 2.19709 9.61385 2.51094 8.84072C2.8248 8.06752 3.36014 7.40439 4.0497 6.93459C4.73928 6.46471 5.55232 6.20913 6.38669 6.19992V8.49325Z" fill="#627384"/></svg>