<svg width="16" height="16" viewBox="0 0 16 16" fill="none" xmlns="http://www.w3.org/2000/svg"><path d="M12.9467 3.46001C11.94 3.18001 8.41337 3.17334 8.01337 3.17334C7.61337 3.17334 4.06004 3.18001 3.06004 3.46001C2.36004 3.64001 1.80003 4.21335 1.62003 4.90668C1.34003 5.91335 1.33337 7.94 1.33337 8.02C1.33337 8.10667 1.34003 10.1067 1.62003 11.12C1.79337 11.8267 2.34671 12.38 3.06004 12.5667C4.06671 12.82 7.61337 12.8267 8.01337 12.8267C8.41337 12.8267 11.9334 12.82 12.94 12.5667C13.6534 12.38 14.2067 11.8267 14.38 11.1333C14.6667 10.1067 14.6667 8.10667 14.6667 8.02C14.6667 7.94 14.6667 5.92001 14.38 4.92001C14.2 4.21335 13.6334 3.64001 12.9467 3.46001ZM7.00004 10.2333C6.84671 10.2333 6.70004 10.1933 6.56004 10.12C6.29337 9.96 6.12671 9.68 6.12671 9.36V6.68C6.12671 6.36668 6.29337 6.08667 6.56004 5.92667C6.83337 5.77334 7.16004 5.76667 7.43337 5.92667L9.78004 7.26667C10.0534 7.42 10.22 7.71333 10.22 8.02C10.22 8.33333 10.0534 8.62667 9.78004 8.78L7.43337 10.12C7.29337 10.2 7.14671 10.2333 7.00004 10.2333Z" fill="#627384"/></svg>