<svg width="88" height="88" viewBox="0 0 88 88" fill="none" xmlns="http://www.w3.org/2000/svg"><rect width="88" height="88" rx="16" fill="#FF8D23" fill-opacity="0.08"/><path d="M57.1607 58.9171H62.3333V53.7446" stroke="#FF8D23" stroke-width="2" stroke-linecap="round" stroke-linejoin="round"/><path d="M47.4176 59.9551C47.9977 58.5195 48.9688 57.2754 50.2207 56.3642C51.4725 55.453 52.9549 54.9112 54.4993 54.8005C56.0437 54.6898 57.5882 55.0146 58.9572 55.7379C60.3263 56.4613 61.4649 57.5542 62.2438 58.8924" stroke="#FF8D23" stroke-width="2" stroke-linecap="round" stroke-linejoin="round"/><path d="M36.3063 43.3583V49.1767" stroke="#FF8D23" stroke-width="2" stroke-linecap="round" stroke-linejoin="round"/><path d="M39.2752 46.268H33.3385" stroke="#FF8D23" stroke-width="2" stroke-linecap="round" stroke-linejoin="round"/><path d="M46.4328 43.537H46.2665" stroke="#FF8D23" stroke-width="2" stroke-linecap="round" stroke-linejoin="round"/><path d="M49.2503 49.087H49.084" stroke="#FF8D23" stroke-width="2" stroke-linecap="round" stroke-linejoin="round"/><path d="M35.1008 27.3333V27.3333C35.1008 28.4838 36.0524 29.4164 37.2263 29.4164H38.8677C40.6786 29.4228 42.1455 30.8605 42.1537 32.6354V33.6842" stroke="#FF8D23" stroke-width="2" stroke-linecap="round" stroke-linejoin="round"/><path d="M56.7396 49.8782V42.6544C56.7396 37.7541 53.0847 34.185 48.0832 34.185C43.4421 34.1092 38.8554 34.1075 34.3247 34.185C29.3231 34.185 25.6666 37.7525 25.6666 42.6544V49.8782C25.6666 54.7802 29.3231 58.3477 34.3247 58.3477C36.8516 58.3902 39.4029 58.4099 41.9799 58.4051" stroke="#FF8D23" stroke-width="2" stroke-linecap="round" stroke-linejoin="round"/></svg>