<svg width="88" height="88" viewBox="0 0 88 88" fill="none" xmlns="http://www.w3.org/2000/svg"><rect width="88" height="88" rx="16" fill="#0DBB53" fill-opacity="0.08"/><path d="M47.177 52.3508C49.9664 51.7826 50.168 50.6266 50.168 48.4821C50.168 45.0278 45.2905 44.1631 39.584 44.1631C33.8434 44.1631 29 45.0572 29 48.513C29 50.6453 29.7186 51.7882 32.4813 52.3508" stroke="#0DBB53" stroke-width="2" stroke-linecap="round" stroke-linejoin="round"/><path fill-rule="evenodd" clip-rule="evenodd" d="M39.5841 39.2331C35.8375 39.2331 32.7993 36.1965 32.7993 32.4498C32.7993 28.7032 35.8375 25.6666 39.5841 25.6666C43.3292 25.6666 46.3673 28.7032 46.3673 32.4498C46.3812 36.1825 43.3647 39.2191 39.632 39.2331H39.5841Z" stroke="#0DBB53" stroke-width="2" stroke-linecap="round" stroke-linejoin="round"/><path d="M50.2446 37.4716C52.7212 37.1235 54.6286 34.9981 54.6332 32.4255C54.6332 29.8902 52.7847 27.7864 50.3606 27.3888" stroke="#0DBB53" stroke-width="2" stroke-linecap="round" stroke-linejoin="round"/><path d="M53.5122 43.429C55.9115 43.7863 57.5868 44.6278 57.5868 46.3604" stroke="#0DBB53" stroke-width="2" stroke-linecap="round" stroke-linejoin="round"/><path d="M51.143 55.8957H57.5806V62.3333" stroke="#0DBB53" stroke-width="2" stroke-linecap="round" stroke-linejoin="round"/><path d="M39.8334 55.6653C40.6667 57.3319 40.948 57.9396 42.506 59.0737C44.0641 60.2078 45.909 60.882 47.8311 61.0198C49.7533 61.1576 51.6755 60.7534 53.3794 59.8531C55.0832 58.9529 56.5004 57.5927 57.4697 55.9272" stroke="#0DBB53" stroke-width="2" stroke-linecap="round" stroke-linejoin="round"/></svg>