<svg width="88" height="88" viewBox="0 0 88 88" fill="none" xmlns="http://www.w3.org/2000/svg"><rect width="88" height="88" rx="16" fill="#2496FF" fill-opacity="0.08"/><path d="M57.1607 57.5902H62.3333V52.4177" stroke="#2496FF" stroke-width="2" stroke-linecap="round" stroke-linejoin="round"/><path d="M47.4176 58.628C47.9977 57.1924 48.9688 55.9483 50.2207 55.0371C51.4725 54.1259 52.9549 53.5842 54.4993 53.4735C56.0437 53.3627 57.5882 53.6875 58.9572 54.4109C60.3263 55.1342 61.4649 56.2271 62.2438 57.5653" stroke="#2496FF" stroke-width="2" stroke-linecap="round" stroke-linejoin="round"/><path d="M55.4018 48.4142H49.1122C46.8027 48.4128 44.9309 46.5377 44.9294 44.2226C44.9294 41.9075 46.8027 40.0324 49.1122 40.031H55.4018" stroke="#2496FF" stroke-width="2" stroke-linecap="round" stroke-linejoin="round"/><path d="M49.8236 44.1272H49.3394" stroke="#2496FF" stroke-width="2" stroke-linecap="round" stroke-linejoin="round"/><path d="M55.4015 47.7446V38.8397C55.4015 34.3259 51.7512 30.6666 47.2485 30.6666H33.8197C29.3169 30.6666 25.6666 34.3259 25.6666 38.8397V50.0178C25.6666 54.5316 29.3169 58.1909 33.8197 58.1909H41.9799" stroke="#2496FF" stroke-width="2" stroke-linecap="round" stroke-linejoin="round"/><path d="M32.7134 37.7335H41.1015" stroke="#2496FF" stroke-width="2" stroke-linecap="round" stroke-linejoin="round"/></svg>